0, 0, Header, 0, 1, 384
1, 0, Start_track
1, 0, Tempo, 500000
1, 0, Time_signature, 4, 2, 24, 8
1, 0, Note_on_c, 0, 39, 81
1, 0, Note_off_c, 0, 51, 0
1, 0, Note_on_c, 0, 58, 94
1, 0, Note_off_c, 0, 58, 0
1, 0, Note_on_c, 0, 39, 101
1, 0, Note_off_c, 0, 39, 0
1, 0, Note_on_c, 0, 46, 94
1, 0, Note_off_c, 0, 46, 0
1, 0, Note_on_c, 0, 51, 101
1, 0, Note_off_c, 0, 51, 0
1, 0, Note_on_c, 0, 58, 94
1, 0, Note_off_c, 0, 58, 0
1, 0, Note_on_c, 0, 51, 127
1, 0, Note_off_c, 0, 51, 0
1, 0, Note_on_c, 0, 56, 77
1, 0, Note_off_c, 0, 56, 0
1, 0, Note_on_c, 0, 55, 72
1, 0, Note_off_c, 0, 55, 0
1, 0, Note_on_c, 0, 58, 127
1, 0, Note_off_c, 0, 58, 0
1, 0, Note_on_c, 0, 62, 114
1, 0, Note_off_c, 0, 62, 0
1, 0, Note_on_c, 0, 51, 127
1, 0, Note_off_c, 0, 51, 0
1, 0, Note_on_c, 0, 55, 80
1, 0, Note_off_c, 0, 55, 0
1, 0, Note_on_c, 0, 58, 127
1, 0, Note_off_c, 0, 58, 0
1, 0, Note_on_c, 0, 62, 114
1, 0, Note_off_c, 0, 62, 0
1, 0, Note_on_c, 0, 51, 120
1, 0, Note_off_c, 0, 51, 0
1, 0, Note_on_c, 0, 55, 62
1, 0, Note_off_c, 0, 55, 0
1, 0, Note_on_c, 0, 58, 127
1, 0, Note_off_c, 0, 58, 0
1, 0, Note_on_c, 0, 62, 114
1, 0, Note_off_c, 0, 62, 0
1, 0, Note_on_c, 0, 51, 85
1, 0, Note_off_c, 0, 51, 0
1, 0, Note_on_c, 0, 55, 75
1, 0, Note_off_c, 0, 55, 0
1, 0, Note_on_c, 0, 58, 65
1, 0, Note_off_c, 0, 58, 0
1, 0, Note_on_c, 0, 62, 101
1, 0, Note_off_c, 0, 62, 0
1, 0, Note_on_c, 0, 48, 58
1, 0, Note_on_c, 0, 51, 58
1, 0, Note_on_c, 0, 55, 60
1, 0, Note_on_c, 0, 58, 66
1, 0, Note_on_c, 0, 62, 88
1, 0, Note_off_c, 0, 51, 0
1, 0, Note_off_c, 0, 58, 0
1, 0, Note_off_c, 0, 55, 0
1, 0, Note_off_c, 0, 48, 0
1, 0, Note_off_c, 0, 62, 0
1, 2511, Note_on_c, 0, 39, 107
1, 2575, Note_off_c, 0, 39, 0
1, 2639, Note_on_c, 0, 43, 94
1, 2703, Note_off_c, 0, 43, 0
1, 2767, Note_on_c, 0, 46, 83
1, 2831, Note_off_c, 0, 46, 0
1, 2895, Note_on_c, 0, 50, 86
1, 2959, Note_off_c, 0, 50, 0
1, 3023, Note_on_c, 0, 51, 107
1, 3087, Note_off_c, 0, 51, 0
1, 3151, Note_on_c, 0, 55, 94
1, 3214, Note_off_c, 0, 55, 0
1, 3279, Note_on_c, 0, 58, 83
1, 3343, Note_off_c, 0, 58, 0
1, 3406, Note_on_c, 0, 62, 86
1, 3471, Note_off_c, 0, 62, 0
1, 3535, Note_on_c, 0, 39, 107
1, 3598, Note_off_c, 0, 39, 0
1, 3663, Note_on_c, 0, 43, 94
1, 3727, Note_off_c, 0, 43, 0
1, 3790, Note_on_c, 0, 46, 83
1, 3855, Note_off_c, 0, 46, 0
1, 3919, Note_on_c, 0, 50, 86
1, 3982, Note_off_c, 0, 50, 0
1, 4046, Note_on_c, 0, 51, 107
1, 4111, Note_off_c, 0, 51, 0
1, 4174, Note_on_c, 0, 55, 94
1, 4238, Note_off_c, 0, 55, 0
1, 4303, Note_on_c, 0, 58, 83
1, 4366, Note_off_c, 0, 58, 0
1, 4430, Note_on_c, 0, 62, 86
1, 4495, Note_off_c, 0, 62, 0
1, 4558, Note_on_c, 0, 39, 86
1, 4622, Note_off_c, 0, 39, 0
1, 4686, Note_on_c, 0, 43, 82
1, 4750, Note_off_c, 0, 43, 0
1, 4814, Note_on_c, 0, 44, 83
1, 4878, Note_off_c, 0, 44, 0
1, 4942, Note_on_c, 0, 48, 86
1, 5006, Note_off_c, 0, 48, 0
1, 5070, Note_on_c, 0, 51, 86
1, 5134, Note_off_c, 0, 51, 0
1, 5198, Note_on_c, 0, 55, 82
1, 5262, Note_off_c, 0, 55, 0
1, 5326, Note_on_c, 0, 56, 83
1, 5390, Note_off_c, 0, 56, 0
1, 5454, Note_on_c, 0, 60, 86
1, 5518, Note_off_c, 0, 60, 0
1, 5582, Note_on_c, 0, 39, 86
1, 5646, Note_off_c, 0, 39, 0
1, 5710, Note_on_c, 0, 43, 82
1, 5774, Note_off_c, 0, 43, 0
1, 5838, Note_on_c, 0, 44, 83
1, 5902, Note_off_c, 0, 44, 0
1, 5965, Note_on_c, 0, 48, 86
1, 6030, Note_off_c, 0, 48, 0
1, 6094, Note_on_c, 0, 51, 86
1, 6157, Note_off_c, 0, 51, 0
1, 6222, Note_on_c, 0, 55, 82
1, 6286, Note_off_c, 0, 55, 0
1, 6349, Note_on_c, 0, 56, 83
1, 6413, Note_off_c, 0, 56, 0
1, 6478, Note_on_c, 0, 60, 86
1, 6541, Note_off_c, 0, 60, 0
1, 6605, Note_on_c, 0, 41, 94
1, 6670, Note_off_c, 0, 41, 0
1, 6733, Note_on_c, 0, 44, 94
1, 6797, Note_off_c, 0, 44, 0
1, 6862, Note_on_c, 0, 48, 87
1, 6925, Note_off_c, 0, 48, 0
1, 6989, Note_on_c, 0, 50, 87
1, 7054, Note_off_c, 0, 50, 0
1, 7117, Note_on_c, 0, 53, 94
1, 7186, Note_off_c, 0, 53, 0
1, 7245, Note_on_c, 0, 56, 94
1, 7309, Note_off_c, 0, 56, 0
1, 7373, Note_on_c, 0, 60, 87
1, 7437, Note_off_c, 0, 60, 0
1, 7501, Note_on_c, 0, 62, 87
1, 7565, Note_off_c, 0, 62, 0
1, 7629, Note_on_c, 0, 41, 87
1, 7693, Note_off_c, 0, 41, 0
1, 7757, Note_on_c, 0, 46, 88
1, 7821, Note_off_c, 0, 46, 0
1, 7885, Note_on_c, 0, 47, 88
1, 7949, Note_off_c, 0, 47, 0
1, 8013, Note_on_c, 0, 51, 88
1, 8077, Note_off_c, 0, 51, 0
1, 8141, Note_on_c, 0, 53, 87
1, 8205, Note_off_c, 0, 53, 0
1, 8269, Note_on_c, 0, 58, 88
1, 8333, Note_off_c, 0, 58, 0
1, 8397, Note_on_c, 0, 59, 88
1, 8461, Note_off_c, 0, 59, 0
1, 8524, Note_on_c, 0, 63, 88
1, 8589, Note_off_c, 0, 63, 0
1, 8653, Note_on_c, 0, 39, 86
1, 8716, Note_off_c, 0, 39, 0
1, 8781, Note_on_c, 0, 43, 83
1, 8845, Note_off_c, 0, 43, 0
1, 8908, Note_on_c, 0, 46, 87
1, 8973, Note_off_c, 0, 46, 0
1, 9037, Note_on_c, 0, 50, 82
1, 9100, Note_off_c, 0, 50, 0
1, 9165, Note_on_c, 0, 51, 86
1, 9229, Note_off_c, 0, 51, 0
1, 9292, Note_on_c, 0, 55, 83
1, 9356, Note_off_c, 0, 55, 0
1, 9421, Note_on_c, 0, 58, 87
1, 9484, Note_off_c, 0, 58, 0
1, 9548, Note_on_c, 0, 62, 82
1, 9613, Note_off_c, 0, 62, 0
1, 9676, Note_on_c, 0, 39, 86
1, 9740, Note_off_c, 0, 39, 0
1, 9804, Note_on_c, 0, 43, 83
1, 9868, Note_off_c, 0, 43, 0
1, 9932, Note_on_c, 0, 46, 87
1, 9996, Note_off_c, 0, 46, 0
1, 10060, Note_on_c, 0, 50, 82
1, 10124, Note_off_c, 0, 50, 0
1, 10188, Note_on_c, 0, 51, 86
1, 10252, Note_off_c, 0, 51, 0
1, 10316, Note_on_c, 0, 55, 83
1, 10380, Note_off_c, 0, 55, 0
1, 10444, Note_on_c, 0, 58, 87
1, 10508, Note_off_c, 0, 58, 0
1, 10572, Note_on_c, 0, 62, 82
1, 10636, Note_off_c, 0, 62, 0
1, 10700, Note_on_c, 0, 42, 86
1, 10764, Note_off_c, 0, 42, 0
1, 10828, Note_on_c, 0, 46, 87
1, 10892, Note_off_c, 0, 46, 0
1, 10956, Note_on_c, 0, 49, 87
1, 11020, Note_off_c, 0, 49, 0
1, 11083, Note_on_c, 0, 53, 88
1, 11148, Note_off_c, 0, 53, 0
1, 11212, Note_on_c, 0, 54, 86
1, 11275, Note_off_c, 0, 54, 0
1, 11340, Note_on_c, 0, 58, 87
1, 11404, Note_off_c, 0, 58, 0
1, 11467, Note_on_c, 0, 61, 87
1, 11532, Note_off_c, 0, 61, 0
1, 11596, Note_on_c, 0, 65, 88
1, 11659, Note_off_c, 0, 65, 0
1, 11723, Note_on_c, 0, 42, 83
1, 11788, Note_off_c, 0, 42, 0
1, 11851, Note_on_c, 0, 46, 87
1, 11915, Note_off_c, 0, 46, 0
1, 11980, Note_on_c, 0, 48, 87
1, 12043, Note_off_c, 0, 48, 0
1, 12107, Note_on_c, 0, 53, 85
1, 12172, Note_off_c, 0, 53, 0
1, 12235, Note_on_c, 0, 54, 83
1, 12299, Note_off_c, 0, 54, 0
1, 12363, Note_on_c, 0, 58, 87
1, 12427, Note_off_c, 0, 58, 0
1, 12491, Note_on_c, 0, 60, 87
1, 12555, Note_off_c, 0, 60, 0
1, 12619, Note_on_c, 0, 65, 85
1, 12683, Note_off_c, 0, 65, 0
1, 12747, Note_on_c, 0, 41, 94
1, 12811, Note_off_c, 0, 41, 0
1, 12875, Note_on_c, 0, 44, 86
1, 12939, Note_off_c, 0, 44, 0
1, 13003, Note_on_c, 0, 48, 94
1, 13067, Note_off_c, 0, 48, 0
1, 13131, Note_on_c, 0, 51, 87
1, 13195, Note_off_c, 0, 51, 0
1, 13259, Note_on_c, 0, 53, 94
1, 13323, Note_off_c, 0, 53, 0
1, 13387, Note_on_c, 0, 56, 86
1, 13451, Note_off_c, 0, 56, 0
1, 13515, Note_on_c, 0, 60, 94
1, 13579, Note_off_c, 0, 60, 0
1, 13642, Note_on_c, 0, 63, 87
1, 13707, Note_off_c, 0, 63, 0
1, 13771, Note_on_c, 0, 41, 94
1, 13834, Note_off_c, 0, 41, 0
1, 13899, Note_on_c, 0, 44, 86
1, 13963, Note_off_c, 0, 44, 0
1, 14026, Note_on_c, 0, 48, 94
1, 14091, Note_off_c, 0, 48, 0
1, 14155, Note_on_c, 0, 51, 87
1, 14218, Note_off_c, 0, 51, 0
1, 14282, Note_on_c, 0, 53, 94
1, 14347, Note_off_c, 0, 53, 0
1, 14410, Note_on_c, 0, 56, 86
1, 14474, Note_off_c, 0, 56, 0
1, 14539, Note_on_c, 0, 60, 94
1, 14602, Note_off_c, 0, 60, 0
1, 14666, Note_on_c, 0, 63, 87
1, 14731, Note_off_c, 0, 63, 0
1, 14794, Note_on_c, 0, 41, 101
1, 14858, Note_off_c, 0, 41, 0
1, 14923, Note_on_c, 0, 44, 107
1, 14986, Note_off_c, 0, 44, 0
1, 15050, Note_on_c, 0, 48, 88
1, 15114, Note_off_c, 0, 48, 0
1, 15178, Note_on_c, 0, 50, 85
1, 15242, Note_off_c, 0, 50, 0
1, 15306, Note_on_c, 0, 53, 101
1, 15370, Note_off_c, 0, 53, 0
1, 15434, Note_on_c, 0, 56, 107
1, 15498, Note_off_c, 0, 56, 0
1, 15561, Note_on_c, 0, 60, 88
1, 15626, Note_off_c, 0, 60, 0
1, 15690, Note_on_c, 0, 62, 85
1, 15753, Note_off_c, 0, 62, 0
1, 15818, Note_on_c, 0, 41, 86
1, 15882, Note_off_c, 0, 41, 0
1, 15945, Note_on_c, 0, 46, 88
1, 16010, Note_off_c, 0, 46, 0
1, 16074, Note_on_c, 0, 47, 88
1, 16137, Note_off_c, 0, 47, 0
1, 16202, Note_on_c, 0, 51, 101
1, 16266, Note_off_c, 0, 51, 0
1, 16329, Note_on_c, 0, 53, 86
1, 16393, Note_off_c, 0, 53, 0
1, 16458, Note_on_c, 0, 58, 88
1, 16521, Note_off_c, 0, 58, 0
1, 16585, Note_on_c, 0, 59, 88
1, 16650, Note_off_c, 0, 59, 0
1, 16713, Note_on_c, 0, 63, 101
1, 16777, Note_off_c, 0, 63, 0
1, 16841, Note_on_c, 0, 39, 86
1, 16905, Note_off_c, 0, 39, 0
1, 16969, Note_on_c, 0, 43, 77
1, 17033, Note_off_c, 0, 43, 0
1, 17097, Note_on_c, 0, 46, 87
1, 17161, Note_off_c, 0, 46, 0
1, 17225, Note_on_c, 0, 50, 81
1, 17289, Note_off_c, 0, 50, 0
1, 17353, Note_on_c, 0, 51, 86
1, 17417, Note_off_c, 0, 51, 0
1, 17481, Note_on_c, 0, 55, 77
1, 17545, Note_off_c, 0, 55, 0
1, 17609, Note_on_c, 0, 58, 87
1, 17673, Note_off_c, 0, 58, 0
1, 17737, Note_on_c, 0, 62, 81
1, 17801, Note_off_c, 0, 62, 0
1, 17865, Note_on_c, 0, 39, 86
1, 17929, Note_off_c, 0, 39, 0
1, 17993, Note_on_c, 0, 43, 77
1, 18057, Note_off_c, 0, 43, 0
1, 18120, Note_on_c, 0, 46, 87
1, 18185, Note_off_c, 0, 46, 0
1, 18249, Note_on_c, 0, 50, 81
1, 18312, Note_off_c, 0, 50, 0
1, 18377, Note_on_c, 0, 51, 86
1, 18441, Note_off_c, 0, 51, 0
1, 18504, Note_on_c, 0, 55, 77
1, 18569, Note_off_c, 0, 55, 0
1, 18633, Note_on_c, 0, 58, 87
1, 18696, Note_off_c, 0, 58, 0
1, 18761, Note_on_c, 0, 62, 81
1, 18825, Note_off_c, 0, 62, 0
1, 18888, Note_on_c, 0, 39, 101
1, 18952, Note_off_c, 0, 39, 0
1, 19017, Note_on_c, 0, 46, 101
1, 19080, Note_off_c, 0, 46, 0
1, 19144, Note_on_c, 0, 51, 101
1, 19209, Note_off_c, 0, 51, 0
1, 19272, Note_on_c, 0, 58, 101
1, 19336, Note_off_c, 0, 58, 0
1, 19400, Note_on_c, 0, 39, 101
1, 19464, Note_off_c, 0, 39, 0
1, 19528, Note_on_c, 0, 46, 101
1, 19592, Note_off_c, 0, 46, 0
1, 19656, Note_on_c, 0, 51, 101
1, 19720, Note_off_c, 0, 51, 0
1, 19784, Note_on_c, 0, 58, 101
1, 19848, Note_off_c, 0, 58, 0
1, 19912, Note_on_c, 0, 39, 101
1, 19976, Note_off_c, 0, 39, 0
1, 20040, Note_on_c, 0, 46, 101
1, 20104, Note_off_c, 0, 46, 0
1, 20168, Note_on_c, 0, 51, 101
1, 20232, Note_off_c, 0, 51, 0
1, 20296, Note_on_c, 0, 58, 101
1, 20360, Note_off_c, 0, 58, 0
1, 20424, Note_on_c, 0, 39, 101
1, 20488, Note_off_c, 0, 39, 0
1, 20552, Note_on_c, 0, 46, 101
1, 20616, Note_off_c, 0, 46, 0
1, 20680, Note_on_c, 0, 51, 101
1, 20744, Note_off_c, 0, 51, 0
1, 20808, Note_on_c, 0, 58, 101
1, 20871, Note_off_c, 0, 58, 0
1, 20936, Note_on_c, 0, 39, 107
1, 21000, Note_off_c, 0, 39, 0
1, 21063, Note_on_c, 0, 44, 107
1, 21128, Note_off_c, 0, 44, 0
1, 21192, Note_on_c, 0, 51, 107
1, 21255, Note_off_c, 0, 51, 0
1, 21319, Note_on_c, 0, 56, 107
1, 21384, Note_off_c, 0, 56, 0
1, 21447, Note_on_c, 0, 39, 107
1, 21511, Note_off_c, 0, 39, 0
1, 21576, Note_on_c, 0, 44, 107
1, 21639, Note_off_c, 0, 44, 0
1, 21703, Note_on_c, 0, 51, 107
1, 21768, Note_off_c, 0, 51, 0
1, 21831, Note_on_c, 0, 56, 107
1, 21895, Note_off_c, 0, 56, 0
1, 21960, Note_on_c, 0, 39, 107
1, 22023, Note_off_c, 0, 39, 0
1, 22087, Note_on_c, 0, 44, 107
1, 22151, Note_off_c, 0, 44, 0
1, 22215, Note_on_c, 0, 51, 107
1, 22279, Note_off_c, 0, 51, 0
1, 22343, Note_on_c, 0, 56, 107
1, 22407, Note_off_c, 0, 56, 0
1, 22471, Note_on_c, 0, 39, 107
1, 22535, Note_off_c, 0, 39, 0
1, 22599, Note_on_c, 0, 44, 107
1, 22663, Note_off_c, 0, 44, 0
1, 22727, Note_on_c, 0, 51, 107
1, 22791, Note_off_c, 0, 51, 0
1, 22855, Note_on_c, 0, 56, 107
1, 22919, Note_off_c, 0, 56, 0
1, 22983, Note_on_c, 0, 41, 88
1, 23047, Note_off_c, 0, 41, 0
1, 23111, Note_on_c, 0, 48, 87
1, 23175, Note_off_c, 0, 48, 0
1, 23238, Note_on_c, 0, 53, 88
1, 23303, Note_off_c, 0, 53, 0
1, 23367, Note_on_c, 0, 60, 87
1, 23430, Note_off_c, 0, 60, 0
1, 23495, Note_on_c, 0, 41, 88
1, 23559, Note_off_c, 0, 41, 0
1, 23622, Note_on_c, 0, 48, 87
1, 23687, Note_off_c, 0, 48, 0
1, 23751, Note_on_c, 0, 53, 88
1, 23814, Note_off_c, 0, 53, 0
1, 23878, Note_on_c, 0, 60, 87
1, 23943, Note_off_c, 0, 60, 0
1, 24006, Note_on_c, 0, 41, 107
1, 24070, Note_off_c, 0, 41, 0
1, 24135, Note_on_c, 0, 47, 94
1, 24198, Note_off_c, 0, 47, 0
1, 24262, Note_on_c, 0, 53, 107
1, 24327, Note_off_c, 0, 53, 0
1, 24390, Note_on_c, 0, 59, 94
1, 24454, Note_off_c, 0, 59, 0
1, 24518, Note_on_c, 0, 41, 107
1, 24582, Note_off_c, 0, 41, 0
1, 24646, Note_on_c, 0, 47, 94
1, 24710, Note_off_c, 0, 47, 0
1, 24774, Note_on_c, 0, 53, 107
1, 24838, Note_off_c, 0, 53, 0
1, 24902, Note_on_c, 0, 59, 94
1, 24966, Note_off_c, 0, 59, 0
1, 25030, Note_on_c, 0, 39, 101
1, 25094, Note_off_c, 0, 39, 0
1, 25158, Note_on_c, 0, 46, 87
1, 25222, Note_off_c, 0, 46, 0
1, 25286, Note_on_c, 0, 51, 101
1, 25350, Note_off_c, 0, 51, 0
1, 25414, Note_on_c, 0, 58, 87
1, 25478, Note_off_c, 0, 58, 0
1, 25542, Note_on_c, 0, 39, 101
1, 25606, Note_off_c, 0, 39, 0
1, 25670, Note_on_c, 0, 46, 87
1, 25734, Note_off_c, 0, 46, 0
1, 25798, Note_on_c, 0, 51, 101
1, 25862, Note_off_c, 0, 51, 0
1, 25926, Note_on_c, 0, 58, 87
1, 25990, Note_off_c, 0, 58, 0
1, 26054, Note_on_c, 0, 39, 101
1, 26118, Note_off_c, 0, 39, 0
1, 26181, Note_on_c, 0, 46, 87
1, 26246, Note_off_c, 0, 46, 0
1, 26310, Note_on_c, 0, 51, 101
1, 26373, Note_off_c, 0, 51, 0
1, 26438, Note_on_c, 0, 58, 87
1, 26502, Note_off_c, 0, 58, 0
1, 26565, Note_on_c, 0, 39, 101
1, 26630, Note_off_c, 0, 39, 0
1, 26694, Note_on_c, 0, 46, 87
1, 26757, Note_off_c, 0, 46, 0
1, 26821, Note_on_c, 0, 51, 101
1, 26886, Note_off_c, 0, 51, 0
1, 26949, Note_on_c, 0, 58, 87
1, 27013, Note_off_c, 0, 58, 0
1, 27078, Note_on_c, 0, 42, 101
1, 27141, Note_off_c, 0, 42, 0
1, 27205, Note_on_c, 0, 49, 101
1, 27270, Note_off_c, 0, 49, 0
1, 27333, Note_on_c, 0, 54, 101
1, 27397, Note_off_c, 0, 54, 0
1, 27462, Note_on_c, 0, 61, 101
1, 27525, Note_off_c, 0, 61, 0
1, 27589, Note_on_c, 0, 42, 101
1, 27653, Note_off_c, 0, 42, 0
1, 27717, Note_on_c, 0, 49, 101
1, 27781, Note_off_c, 0, 49, 0
1, 27845, Note_on_c, 0, 54, 101
1, 27909, Note_off_c, 0, 54, 0
1, 27973, Note_on_c, 0, 61, 101
1, 28037, Note_off_c, 0, 61, 0
1, 28101, Note_on_c, 0, 42, 94
1, 28165, Note_off_c, 0, 42, 0
1, 28229, Note_on_c, 0, 48, 88
1, 28293, Note_off_c, 0, 48, 0
1, 28357, Note_on_c, 0, 54, 94
1, 28421, Note_off_c, 0, 54, 0
1, 28485, Note_on_c, 0, 60, 88
1, 28549, Note_off_c, 0, 60, 0
1, 28613, Note_on_c, 0, 42, 94
1, 28677, Note_off_c, 0, 42, 0
1, 28741, Note_on_c, 0, 48, 88
1, 28805, Note_off_c, 0, 48, 0
1, 28869, Note_on_c, 0, 54, 94
1, 28932, Note_off_c, 0, 54, 0
1, 28997, Note_on_c, 0, 60, 88
1, 29061, Note_off_c, 0, 60, 0
1, 29124, Note_on_c, 0, 41, 107
1, 29189, Note_off_c, 0, 41, 0
1, 29253, Note_on_c, 0, 48, 101
1, 29316, Note_off_c, 0, 48, 0
1, 29381, Note_on_c, 0, 53, 107
1, 29445, Note_off_c, 0, 53, 0
1, 29508, Note_on_c, 0, 60, 101
1, 29572, Note_off_c, 0, 60, 0
1, 29637, Note_on_c, 0, 41, 107
1, 29700, Note_off_c, 0, 41, 0
1, 29764, Note_on_c, 0, 48, 101
1, 29829, Note_off_c, 0, 48, 0
1, 29892, Note_on_c, 0, 53, 107
1, 29956, Note_off_c, 0, 53, 0
1, 30021, Note_on_c, 0, 60, 101
1, 30084, Note_off_c, 0, 60, 0
1, 30148, Note_on_c, 0, 41, 107
1, 30212, Note_off_c, 0, 41, 0
1, 30276, Note_on_c, 0, 48, 101
1, 30340, Note_off_c, 0, 48, 0
1, 30404, Note_on_c, 0, 53, 107
1, 30468, Note_off_c, 0, 53, 0
1, 30532, Note_on_c, 0, 60, 101
1, 30596, Note_off_c, 0, 60, 0
1, 30660, Note_on_c, 0, 41, 107
1, 30724, Note_off_c, 0, 41, 0
1, 30788, Note_on_c, 0, 48, 101
1, 30852, Note_off_c, 0, 48, 0
1, 30916, Note_on_c, 0, 53, 107
1, 30980, Note_off_c, 0, 53, 0
1, 31044, Note_on_c, 0, 60, 101
1, 31108, Note_off_c, 0, 60, 0
1, 31172, Note_on_c, 0, 41, 107
1, 31236, Note_off_c, 0, 41, 0
1, 31299, Note_on_c, 0, 48, 101
1, 31364, Note_off_c, 0, 48, 0
1, 31428, Note_on_c, 0, 53, 107
1, 31491, Note_off_c, 0, 53, 0
1, 31556, Note_on_c, 0, 60, 101
1, 31620, Note_off_c, 0, 60, 0
1, 31683, Note_on_c, 0, 41, 107
1, 31748, Note_off_c, 0, 41, 0
1, 31812, Note_on_c, 0, 48, 101
1, 31875, Note_off_c, 0, 48, 0
1, 31940, Note_on_c, 0, 53, 107
1, 32004, Note_off_c, 0, 53, 0
1, 32067, Note_on_c, 0, 60, 101
1, 32131, Note_off_c, 0, 60, 0
1, 32196, Note_on_c, 0, 41, 101
1, 32259, Note_off_c, 0, 41, 0
1, 32323, Note_on_c, 0, 47, 94
1, 32388, Note_off_c, 0, 47, 0
1, 32451, Note_on_c, 0, 53, 101
1, 32515, Note_off_c, 0, 53, 0
1, 32579, Note_on_c, 0, 59, 94
1, 32643, Note_off_c, 0, 59, 0
1, 32707, Note_on_c, 0, 41, 101
1, 32771, Note_off_c, 0, 41, 0
1, 32835, Note_on_c, 0, 47, 94
1, 32899, Note_off_c, 0, 47, 0
1, 32963, Note_on_c, 0, 53, 101
1, 33027, Note_off_c, 0, 53, 0
1, 33091, Note_on_c, 0, 59, 94
1, 33155, Note_off_c, 0, 59, 0
1, 33219, Note_on_c, 0, 39, 107
1, 33283, Note_off_c, 0, 39, 0
1, 33347, Note_on_c, 0, 46, 107
1, 33411, Note_off_c, 0, 46, 0
1, 33475, Note_on_c, 0, 51, 107
1, 33539, Note_off_c, 0, 51, 0
1, 33603, Note_on_c, 0, 58, 107
1, 33667, Note_off_c, 0, 58, 0
1, 33731, Note_on_c, 0, 39, 107
1, 33795, Note_off_c, 0, 39, 0
1, 33859, Note_on_c, 0, 46, 107
1, 33923, Note_off_c, 0, 46, 0
1, 33987, Note_on_c, 0, 51, 107
1, 34051, Note_off_c, 0, 51, 0
1, 34115, Note_on_c, 0, 58, 107
1, 34179, Note_off_c, 0, 58, 0
1, 34242, Note_on_c, 0, 39, 107
1, 34307, Note_off_c, 0, 39, 0
1, 34371, Note_on_c, 0, 46, 107
1, 34434, Note_off_c, 0, 46, 0
1, 34499, Note_on_c, 0, 51, 107
1, 34563, Note_off_c, 0, 51, 0
1, 34626, Note_on_c, 0, 58, 107
1, 34691, Note_off_c, 0, 58, 0
1, 34755, Note_on_c, 0, 39, 107
1, 34818, Note_off_c, 0, 39, 0
1, 34882, Note_on_c, 0, 46, 107
1, 34947, Note_off_c, 0, 46, 0
1, 35010, Note_on_c, 0, 51, 107
1, 35074, Note_off_c, 0, 51, 0
1, 35316, Note_on_c, 0, 39, 120
1, 35435, Note_on_c, 0, 43, 81
1, 35437, Note_off_c, 0, 39, 0
1, 35506, Note_off_c, 0, 43, 0
1, 35569, Note_on_c, 0, 46, 127
1, 35637, Note_off_c, 0, 46, 0
1, 35700, Note_on_c, 0, 50, 120
1, 35818, Note_on_c, 0, 39, 127
1, 35839, Note_off_c, 0, 50, 0
1, 35890, Note_off_c, 0, 39, 0
1, 35947, Note_on_c, 0, 43, 75
1, 36013, Note_off_c, 0, 43, 0
1, 36082, Note_on_c, 0, 46, 127
1, 36126, Note_off_c, 0, 46, 0
1, 36217, Note_on_c, 0, 50, 120
1, 36297, Note_off_c, 0, 50, 0
1, 36358, Note_on_c, 0, 39, 127
1, 36427, Note_off_c, 0, 39, 0
1, 36512, Note_on_c, 0, 43, 78
1, 36571, Note_off_c, 0, 43, 0
1, 36652, Note_on_c, 0, 46, 127
1, 36718, Note_off_c, 0, 46, 0
1, 36812, Note_on_c, 0, 50, 87
1, 36886, Note_off_c, 0, 50, 0
1, 36983, Note_on_c, 0, 39, 94
1, 37065, Note_off_c, 0, 39, 0
1, 37165, Note_on_c, 0, 43, 76
1, 37237, Note_off_c, 0, 43, 0
1, 37351, Note_on_c, 0, 46, 120
1, 37420, Note_off_c, 0, 46, 0
1, 37585, Note_on_c, 0, 50, 94
1, 37672, Note_off_c, 0, 50, 0
1, 37803, Note_on_c, 0, 36, 66
1, 37901, Note_on_c, 0, 39, 66
1, 37966, Note_on_c, 0, 43, 62
1, 38096, Note_on_c, 0, 46, 53
1, 38138, Note_on_c, 0, 50, 83
1, 42902, Note_off_c, 0, 39, 0
1, 42950, Note_off_c, 0, 46, 0
1, 42950, Note_off_c, 0, 43, 0
1, 42955, Note_off_c, 0, 50, 0
1, 42963, Note_off_c, 0, 36, 0
1, 44197, End_track
0, 0, End_of_file
